<svg width="512" height="512" viewBox="0 0 512 512" xmlns="http://www.w3.org/2000/svg">
  <defs>
    <linearGradient id="g1" x1="0%" y1="0%" x2="100%" y2="100%">
      <stop offset="0%" stop-color="#22b5e6"></stop>
      <stop offset="50%" stop-color="#38bdf8"></stop>
      <stop offset="100%" stop-color="#fbbf24"></stop>
    </linearGradient>
  </defs>
  <rect x="0" y="0" width="512" height="512" rx="140" fill="#020617"></rect>
  <g transform="translate(64 80)">
    <rect x="0" y="0" width="384" height="280" rx="60" fill="url(#g1)"></rect>
    <path d="M70 110h180c8 0 14 6 14 14s-6 14-14 14H70c-8 0-14-6-14-14s6-14 14-14zm0 70h120c8 0 14 6 14 14s-6 14-14 14H70c-8 0-14-6-14-14s6-14 14-14z" fill="rgba(15,23,42,0.15)"></path>
    <!-- vent 'tail' -->
    <path d="M290 260c0 45-30 80-100 92 20-24 26-46 26-66 0-13-3-25-7-36h81z" fill="#020617" opacity="0.9"></path>
    <!-- V in cursive style -->
    <path d="M160 75c12-22 30-32 50-32 24 0 42 12 42 36 0 26-18 52-40 52-12 0-20-7-20-18 0-9 6-16 14-16 6 0 10 4 11 10" fill="none" stroke="#f9fafb" stroke-width="10" stroke-linecap="round" stroke-linejoin="round"></path>
  </g>
</svg>
